<svg width="18" height="487" viewBox="0 0 18 487" fill="none" xmlns="http://www.w3.org/2000/svg">
<path d="M2.43293 15.4794H15.1894C16.801 15.4794 17.6223 14.6736 17.6223 13.0775V4.2615C17.6223 2.66538 16.801 1.86732 15.1894 1.86732H13.677C13.0649 1.86732 12.8789 1.74334 12.5303 1.35593L11.9104 0.658595C11.5231 0.232446 11.1278 0 10.3298 0H7.23831C6.44023 0 6.04505 0.232446 5.65765 0.658595L5.0378 1.35593C4.68913 1.73559 4.49541 1.86732 3.89107 1.86732H2.43293C0.813579 1.86732 0 2.66538 0 4.2615V13.0775C0 14.6736 0.813579 15.4794 2.43293 15.4794ZM2.44843 14.2319C1.68912 14.2319 1.24746 13.8213 1.24746 13.0155V4.33123C1.24746 3.52542 1.68912 3.11477 2.44843 3.11477H4.20099C4.89833 3.11477 5.27799 2.98305 5.6654 2.54915L6.26975 1.86732C6.71139 1.37143 6.94385 1.24746 7.62565 1.24746H9.94242C10.6242 1.24746 10.8567 1.37143 11.2984 1.86732L11.9027 2.54915C12.2901 2.98305 12.6698 3.11477 13.3671 3.11477H15.1662C15.9332 3.11477 16.3749 3.52542 16.3749 4.33123V13.0155C16.3749 13.8213 15.9332 14.2319 15.1662 14.2319H2.44843ZM8.81117 12.6649C11.1511 12.6649 13.034 10.7898 13.034 8.42667C13.034 6.07124 11.1589 4.19618 8.81117 4.19618C6.46348 4.19618 4.58066 6.07124 4.58066 8.42667C4.58066 10.7898 6.46348 12.6649 8.81117 12.6649ZM8.81117 11.4873C7.12983 11.4873 5.75063 10.1313 5.75063 8.42667C5.75063 6.72984 7.12208 5.36616 8.81117 5.36616C10.5002 5.36616 11.8639 6.72984 11.8639 8.42667C11.8639 10.1313 10.5002 11.4873 8.81117 11.4873Z" fill="black"/>
<path d="M8.81063 378.906C8.49927 378.906 8.20207 378.806 7.95086 378.615C6.24545 377.321 2.16947 374.102 1.14694 372.153C-0.190492 369.605 0.612674 366.333 2.93372 364.859C3.68381 364.383 4.53298 364.131 5.39629 364.131C6.68773 364.131 7.90132 364.671 8.81063 365.633C9.71994 364.671 10.9335 364.131 12.225 364.131C13.0883 364.131 13.9375 364.383 14.6875 364.859C17.0086 366.333 17.8118 369.605 16.4779 372.153C15.4553 374.102 11.3794 377.321 9.67395 378.615C9.4192 378.806 9.12199 378.906 8.81063 378.906ZM5.39629 365.212C4.73111 365.212 4.07655 365.406 3.49629 365.774C1.63875 366.956 1.00187 369.587 2.08102 371.641C3.02925 373.45 7.29629 376.773 8.58065 377.746C8.7151 377.847 8.90263 377.847 9.03708 377.746C10.3214 376.769 14.5885 373.447 15.5367 371.641C16.6159 369.587 15.979 366.952 14.1214 365.774C13.5447 365.406 12.8902 365.212 12.225 365.212C11.0609 365.212 9.97116 365.788 9.23522 366.79L8.81063 367.374L8.38605 366.79C7.65011 365.788 6.56389 365.212 5.39629 365.212Z" fill="black"/>
<path d="M5.77193 389.906H1.69046V389.177L3.25296 387.594C3.55529 387.286 3.80403 387.021 3.99917 386.798C4.19431 386.573 4.3386 386.36 4.43205 386.159C4.52825 385.958 4.57635 385.74 4.57635 385.503C4.57635 385.212 4.49252 384.992 4.32486 384.844C4.15721 384.693 3.93595 384.617 3.66111 384.617C3.4 384.617 3.15814 384.669 2.93551 384.774C2.71564 384.875 2.48751 385.021 2.25115 385.211L1.71932 384.572C1.88697 384.429 2.06562 384.298 2.25527 384.18C2.44766 384.062 2.66204 383.968 2.89841 383.9C3.13478 383.828 3.40413 383.792 3.70646 383.792C4.08849 383.792 4.41831 383.861 4.6959 383.999C4.9735 384.133 5.18651 384.322 5.33492 384.563C5.48609 384.805 5.56167 385.087 5.56167 385.409C5.56167 385.733 5.49708 386.032 5.3679 386.307C5.23873 386.582 5.05458 386.854 4.81546 387.124C4.57635 387.39 4.29188 387.68 3.96206 387.993L2.91902 389.012V389.057H5.77193V389.906Z" fill="black"/>
<path d="M10.3729 385.256C10.3729 385.528 10.3179 385.764 10.2079 385.965C10.098 386.166 9.94685 386.331 9.75445 386.46C9.56481 386.586 9.34493 386.677 9.09482 386.732V386.761C9.5758 386.821 9.9386 386.972 10.1832 387.214C10.4306 387.456 10.5543 387.776 10.5543 388.175C10.5543 388.524 10.4704 388.836 10.3028 389.111C10.1351 389.383 9.87813 389.597 9.53183 389.754C9.18552 389.911 8.74027 389.989 8.19607 389.989C7.86901 389.989 7.5653 389.963 7.28496 389.911C7.00736 389.858 6.74351 389.775 6.4934 389.659V388.797C6.74901 388.924 7.02111 389.021 7.30969 389.09C7.59828 389.159 7.87176 389.193 8.13011 389.193C8.63308 389.193 8.99175 389.1 9.20613 388.913C9.42052 388.723 9.52771 388.462 9.52771 388.13C9.52771 387.915 9.47136 387.739 9.35868 387.602C9.24874 387.464 9.07696 387.361 8.84334 387.293C8.61247 387.224 8.31426 387.19 7.94871 387.19H7.41688V386.41H7.95284C8.30189 386.41 8.58223 386.369 8.79387 386.287C9.0055 386.201 9.15804 386.085 9.25148 385.936C9.34768 385.788 9.39578 385.615 9.39578 385.417C9.39578 385.158 9.31195 384.958 9.14429 384.815C8.97664 384.669 8.7279 384.596 8.39809 384.596C8.1947 384.596 8.00918 384.62 7.84152 384.666C7.67661 384.713 7.52407 384.772 7.3839 384.844C7.24373 384.915 7.11043 384.992 6.984 385.075L6.51814 384.403C6.74626 384.232 7.01836 384.088 7.33443 383.97C7.6505 383.852 8.0188 383.792 8.43931 383.792C9.05772 383.792 9.53458 383.926 9.86989 384.192C10.2052 384.456 10.3729 384.811 10.3729 385.256Z" fill="black"/>
<path d="M15.654 388.583H14.8377V389.906H13.8813V388.583H11.1397V387.849L13.8936 383.863H14.8377V387.779H15.654V388.583ZM13.8813 387.779V386.283C13.8813 386.159 13.8826 386.034 13.8854 385.907C13.8909 385.778 13.8964 385.655 13.9019 385.536C13.9074 385.418 13.9129 385.31 13.9184 385.211C13.9239 385.109 13.928 385.025 13.9307 384.959H13.8978C13.8455 385.069 13.7878 385.182 13.7246 385.297C13.6614 385.41 13.5941 385.52 13.5226 385.627L12.0384 387.779H13.8813Z" fill="black"/>
<path fill-rule="evenodd" clip-rule="evenodd" d="M16.1929 420.581L15.3365 417.38C15.2874 417.2 15.312 417.007 15.3962 416.838C16.1438 415.336 16.393 413.541 15.9332 411.67C15.3085 409.137 13.336 407.103 10.8161 406.431C10.1282 406.252 9.45084 406.164 8.79453 406.164C4.08456 406.164 0.406428 410.593 1.67693 415.522C2.26655 417.802 4.69524 420.162 6.98003 420.718C7.59773 420.87 8.20491 420.94 8.79453 420.94C10.0615 420.94 11.2478 420.613 12.2902 420.05C12.406 419.986 12.5358 419.951 12.6622 419.951C12.7254 419.951 12.7885 419.958 12.8517 419.976L15.9613 420.81C15.9788 420.813 15.9964 420.817 16.0104 420.817C16.1297 420.817 16.2245 420.704 16.1929 420.581ZM14.3538 417.643L14.8382 419.455L13.1149 418.994C12.9675 418.956 12.8166 418.935 12.6622 418.935C12.3674 418.935 12.069 419.012 11.8023 419.156C10.8652 419.663 9.85445 419.92 8.79453 419.92C8.27159 419.92 7.74163 419.853 7.21869 419.726C5.28486 419.255 3.1545 417.172 2.66314 415.265C2.15073 413.274 2.55434 411.23 3.76869 409.658C4.98303 408.085 6.81508 407.184 8.79453 407.184C9.37713 407.184 9.97027 407.262 10.5564 407.42C12.7218 407.997 14.403 409.721 14.947 411.916C15.3295 413.464 15.1716 415.008 14.4872 416.384C14.2907 416.778 14.2415 417.225 14.3538 417.643Z" fill="black"/>
<path d="M8.49043 430.616H7.67414V431.94H6.71767V430.616H3.97608V429.883L6.73004 425.896H7.67414V429.813H8.49043V430.616ZM6.71767 429.813V428.316C6.71767 428.192 6.71905 428.067 6.72179 427.941C6.72729 427.812 6.73279 427.688 6.73829 427.57C6.74378 427.452 6.74928 427.343 6.75478 427.244C6.76027 427.142 6.7644 427.059 6.76714 426.993H6.73416C6.68194 427.103 6.62422 427.215 6.56101 427.331C6.49779 427.443 6.43046 427.553 6.359 427.66L4.87483 429.813H6.71767Z" fill="black"/>
<path d="M11.0712 428.172C11.4588 428.172 11.7996 428.242 12.0937 428.382C12.3905 428.519 12.6214 428.723 12.7863 428.992C12.9512 429.259 13.0336 429.586 13.0336 429.973C13.0336 430.397 12.9443 430.762 12.7657 431.07C12.587 431.375 12.3245 431.61 11.9782 431.775C11.6319 431.94 11.21 432.022 10.7126 432.022C10.3965 432.022 10.101 431.995 9.82619 431.94C9.55409 431.885 9.31909 431.802 9.1212 431.693V430.818C9.32734 430.934 9.5747 431.029 9.86329 431.103C10.1519 431.174 10.4281 431.21 10.692 431.21C10.9723 431.21 11.2128 431.169 11.4134 431.086C11.6141 431.004 11.768 430.878 11.8752 430.707C11.9851 430.537 12.0401 430.321 12.0401 430.06C12.0401 429.714 11.9288 429.447 11.7061 429.26C11.4863 429.07 11.1413 428.976 10.6713 428.976C10.5064 428.976 10.3305 428.991 10.1436 429.021C9.95949 429.048 9.80557 429.079 9.68189 429.112L9.25725 428.86L9.484 425.912H12.6173V426.766H10.3374L10.2055 428.267C10.3044 428.245 10.4226 428.224 10.56 428.205C10.6974 428.183 10.8679 428.172 11.0712 428.172Z" fill="black"/>
<path fill-rule="evenodd" clip-rule="evenodd" d="M17.0265 451.021C16.9015 450.795 16.6625 450.66 16.4051 450.66L1.22386 450.671C0.918691 450.671 0.653966 450.863 0.54734 451.152C0.470129 451.362 0.488513 451.588 0.591461 451.772C0.631905 451.839 0.68338 451.903 0.745884 451.959L6.59557 457.11L8.02214 464.848C8.07729 465.152 8.30525 465.378 8.60674 465.426C8.90456 465.475 9.1987 465.333 9.35312 465.066L17.0228 451.753C17.1552 451.524 17.1552 451.246 17.0265 451.021ZM2.25702 451.787H14.6182L7.17649 456.123L2.25702 451.787ZM8.91927 463.594L7.72065 457.092L15.1734 452.751L8.91927 463.594Z" fill="black"/>
<path d="M12.9622 484.958C12.9622 484.124 13.6379 483.448 14.4714 483.448C15.305 483.448 15.9807 484.124 15.9807 484.958C15.9807 485.791 15.305 486.467 14.4714 486.467C13.6379 486.467 12.9622 485.791 12.9622 484.958Z" fill="black"/>
<path d="M6.95511 484.958C6.95511 484.124 7.63082 483.448 8.46435 483.448C9.29788 483.448 9.97359 484.124 9.97359 484.958C9.97359 485.791 9.29788 486.467 8.46435 486.467C7.63082 486.467 6.95511 485.791 6.95511 484.958Z" fill="black"/>
<path d="M1.94921 484.958C1.94921 484.124 2.62492 483.448 3.45845 483.448C4.29198 483.448 4.96768 484.124 4.96768 484.958C4.96768 485.791 4.29198 486.467 3.45845 486.467C2.62492 486.467 1.94921 485.791 1.94921 484.958Z" fill="black"/>
</svg>
