<svg width="847" height="427" viewBox="0 0 847 427" fill="none" xmlns="http://www.w3.org/2000/svg">
<path d="M467.953 206.976L399.996 245.927L399.996 168.026L467.953 206.976Z" fill="black"/>
<line x1="28" y1="378.32" x2="818.705" y2="378.32" stroke="black" stroke-width="1.21871"/>
<path d="M783.694 407.991V405.688H778.183V403.777L783.045 396.082H785.827V403.948H787.43V405.688H785.827V407.991H783.694ZM780.008 403.948H783.694V398.266H783.557L780.008 403.948ZM793.054 408.179C792.463 408.179 792.042 408.054 791.792 407.804C791.541 407.553 791.416 407.246 791.416 406.882V406.37C791.416 406.006 791.541 405.699 791.792 405.449C792.042 405.199 792.463 405.074 793.054 405.074C793.646 405.074 794.066 405.199 794.317 405.449C794.567 405.699 794.692 406.006 794.692 406.37V406.882C794.692 407.246 794.567 407.553 794.317 407.804C794.066 408.054 793.646 408.179 793.054 408.179ZM793.054 402.122C792.463 402.122 792.042 401.997 791.792 401.747C791.541 401.496 791.416 401.189 791.416 400.825V400.313C791.416 399.949 791.541 399.642 791.792 399.392C792.042 399.142 792.463 399.017 793.054 399.017C793.646 399.017 794.066 399.142 794.317 399.392C794.567 399.642 794.692 399.949 794.692 400.313V400.825C794.692 401.189 794.567 401.496 794.317 401.747C794.066 401.997 793.646 402.122 793.054 402.122ZM807.55 407.991H799.156V405.91L802.977 402.651C803.614 402.105 804.086 401.61 804.394 401.166C804.701 400.711 804.854 400.228 804.854 399.716V399.546C804.854 398.977 804.695 398.545 804.377 398.249C804.058 397.953 803.614 397.805 803.046 397.805C802.42 397.805 801.942 397.976 801.612 398.317C801.283 398.658 801.044 399.079 800.896 399.58L798.951 398.846C799.076 398.459 799.252 398.09 799.48 397.737C799.719 397.373 800.009 397.055 800.35 396.782C800.703 396.509 801.118 396.292 801.595 396.133C802.073 395.963 802.619 395.877 803.233 395.877C803.87 395.877 804.433 395.968 804.922 396.15C805.423 396.321 805.844 396.565 806.185 396.884C806.526 397.191 806.782 397.561 806.953 397.993C807.135 398.425 807.226 398.897 807.226 399.409C807.226 399.898 807.146 400.347 806.987 400.757C806.839 401.166 806.629 401.559 806.356 401.934C806.083 402.298 805.759 402.651 805.383 402.992C805.019 403.333 804.621 403.675 804.189 404.016L801.595 406.114H807.55V407.991ZM813.515 408.196C812.742 408.196 812.07 408.059 811.502 407.786C810.933 407.502 810.461 407.098 810.086 406.575C809.722 406.052 809.449 405.409 809.267 404.647C809.096 403.885 809.011 403.015 809.011 402.037C809.011 401.07 809.096 400.205 809.267 399.443C809.449 398.67 809.722 398.021 810.086 397.498C810.461 396.975 810.933 396.577 811.502 396.304C812.07 396.019 812.742 395.877 813.515 395.877C815.062 395.877 816.199 396.418 816.927 397.498C817.655 398.579 818.019 400.092 818.019 402.037C818.019 403.982 817.655 405.494 816.927 406.575C816.199 407.656 815.062 408.196 813.515 408.196ZM813.515 406.404C814.334 406.404 814.908 406.114 815.238 405.534C815.579 404.943 815.75 404.13 815.75 403.094V400.979C815.75 399.944 815.579 399.136 815.238 398.556C814.908 397.965 814.334 397.669 813.515 397.669C812.696 397.669 812.116 397.965 811.775 398.556C811.445 399.136 811.28 399.944 811.28 400.979V403.094C811.28 404.13 811.445 404.943 811.775 405.534C812.116 406.114 812.696 406.404 813.515 406.404ZM813.515 403.043C813.117 403.043 812.838 402.964 812.679 402.804C812.531 402.645 812.457 402.452 812.457 402.224V401.849C812.457 401.621 812.531 401.428 812.679 401.269C812.838 401.11 813.117 401.03 813.515 401.03C813.913 401.03 814.186 401.11 814.334 401.269C814.493 401.428 814.573 401.621 814.573 401.849V402.224C814.573 402.452 814.493 402.645 814.334 402.804C814.186 402.964 813.913 403.043 813.515 403.043Z" fill="black"/>
</svg>
